M48
; DRILL file {KiCad (6.0.9)} date Thu Nov 24 21:30:49 2022
; FORMAT={-:-/ absolute / metric / decimal}
; #@! TF.CreationDate,2022-11-24T21:30:49+02:00
; #@! TF.GenerationSoftware,Kicad,Pcbnew,(6.0.9)
; #@! TF.FileFunction,Plated,1,4,PTH
FMAT,2
METRIC
; #@! TA.AperFunction,Plated,PTH,ViaDrill
T1C0.400
; #@! TA.AperFunction,Plated,PTH,ComponentDrill
T2C1.320
%
G90
G05
T1
X123.876Y-152.07
X123.876Y-154.026
X124.042Y-146.202
X124.042Y-148.768
X124.841Y-159.233
X125.523Y-142.795
X127.432Y-140.716
X127.66Y-162.408
X129.069Y-149.123
X129.134Y-147.244
X129.311Y-150.597
X129.337Y-153.086
X129.896Y-151.943
X129.972Y-145.796
X131.089Y-138.735
X131.242Y-144.653
X131.296Y-154.098
X131.75Y-163.576
X132.461Y-154.965
X132.715Y-144.297
X132.766Y-138.684
X133.629Y-156.007
X133.909Y-144.348
X134.163Y-138.684
X134.29Y-163.449
X134.874Y-156.515
X135.382Y-144.297
X136.068Y-138.786
X136.373Y-156.554
X136.957Y-144.374
X138.405Y-156.515
X138.405Y-163.246
X138.786Y-144.678
X139.192Y-138.887
X139.751Y-155.524
X139.874Y-145.724
X140.081Y-154.584
X140.462Y-153.365
X140.487Y-152.324
X140.716Y-146.99
X140.716Y-150.927
X140.781Y-148.285
X140.781Y-149.504
X142.342Y-161.849
X143.637Y-141.986
X144.983Y-158.699
X146.036Y-151.282
X146.05Y-154.737
X146.075Y-150.063
X146.126Y-145.898
X146.152Y-147.65
X146.304Y-148.946
T2
X112.751Y-152.81
X112.751Y-157.81
X157.048Y-151.435
X157.048Y-156.435
T0
M30
