%TF.GenerationSoftware,KiCad,Pcbnew,(6.0.9)*%
%TF.CreationDate,2022-11-24T21:30:43+02:00*%
%TF.ProjectId,transformer,7472616e-7366-46f7-926d-65722e6b6963,rev?*%
%TF.SameCoordinates,Original*%
%TF.FileFunction,Copper,L3,Inr*%
%TF.FilePolarity,Positive*%
%FSLAX46Y46*%
G04 Gerber Fmt 4.6, Leading zero omitted, Abs format (unit mm)*
G04 Created by KiCad (PCBNEW (6.0.9)) date 2022-11-24 21:30:43*
%MOMM*%
%LPD*%
G01*
G04 APERTURE LIST*
%TA.AperFunction,Profile*%
%ADD10C,0.150000*%
%TD*%
%TA.AperFunction,ComponentPad*%
%ADD11R,3.960000X1.980000*%
%TD*%
%TA.AperFunction,ComponentPad*%
%ADD12O,3.960000X1.980000*%
%TD*%
%TA.AperFunction,ViaPad*%
%ADD13C,0.800000*%
%TD*%
%TA.AperFunction,Conductor*%
%ADD14C,0.500000*%
%TD*%
G04 APERTURE END LIST*
D10*
X102514400Y-135915400D02*
X166674800Y-135915400D01*
X166674800Y-135915400D02*
X166674800Y-166624000D01*
X166674800Y-166624000D02*
X102514400Y-166624000D01*
X102514400Y-166624000D02*
X102514400Y-135915400D01*
D11*
%TO.N,Net-(J2-Pad1)*%
%TO.C,J2*%
X157048200Y-151434800D03*
D12*
X157048200Y-156434800D03*
%TD*%
D11*
%TO.N,Net-(J1-Pad1)*%
%TO.C,J1*%
X112750600Y-157810200D03*
D12*
X112750600Y-152810200D03*
%TD*%
D13*
%TO.N,Net-(J2-Pad1)*%
X140462000Y-153365200D03*
X146050000Y-154736800D03*
X140081000Y-154584400D03*
X139750800Y-155524200D03*
X142341600Y-161848800D03*
X138404600Y-156514800D03*
X138404600Y-163245800D03*
X136372600Y-156554300D03*
X134289800Y-163449000D03*
X124841000Y-159232600D03*
X129895600Y-151942800D03*
X131749800Y-163576000D03*
X123875800Y-152069800D03*
X134874000Y-156514800D03*
X133629400Y-156006800D03*
X129068700Y-149123400D03*
X129311400Y-150596600D03*
X129133600Y-147243800D03*
X124042300Y-146202400D03*
X125523012Y-142795012D03*
X127660400Y-162407600D03*
X129971800Y-145796000D03*
X124042300Y-148767800D03*
X123875800Y-154025600D03*
X127431800Y-140716000D03*
X131296388Y-154098012D03*
X131241800Y-144653000D03*
X144983200Y-158699200D03*
X131089400Y-138734800D03*
X132715000Y-144297400D03*
X132461000Y-154965400D03*
X134162800Y-138684000D03*
X135382000Y-144297400D03*
X133908800Y-144348200D03*
X136067800Y-138785600D03*
X136956800Y-144373600D03*
X139192000Y-138887200D03*
X132765800Y-138684000D03*
X143637000Y-141986000D03*
X138785600Y-144678400D03*
X146126200Y-145897600D03*
X139874012Y-145723588D03*
X140716000Y-146989800D03*
X146151600Y-147650200D03*
X140780900Y-148285200D03*
X146304000Y-148945600D03*
X140780900Y-149504400D03*
X140716000Y-150926800D03*
X146035900Y-151282400D03*
X140487400Y-152323800D03*
X146075400Y-150063200D03*
%TO.N,Net-(J1-Pad1)*%
X129336800Y-153085800D03*
%TD*%
D14*
%TO.N,Net-(J1-Pad1)*%
X112852200Y-157911800D02*
X112750600Y-157810200D01*
X129260600Y-162153600D02*
X125018800Y-157911800D01*
X145161000Y-156718000D02*
X139725400Y-162153600D01*
X145161000Y-144881600D02*
X145161000Y-156718000D01*
X140030200Y-139750800D02*
X145161000Y-144881600D01*
X129768600Y-139750800D02*
X140030200Y-139750800D01*
X124891800Y-144627600D02*
X129768600Y-139750800D01*
X139725400Y-162153600D02*
X129260600Y-162153600D01*
X124891800Y-156083000D02*
X124891800Y-144627600D01*
X138963400Y-160934400D02*
X129743200Y-160934400D01*
X143865600Y-156032200D02*
X138963400Y-160934400D01*
X143865600Y-145389600D02*
X143865600Y-156032200D01*
X139547600Y-141071600D02*
X143865600Y-145389600D01*
X129743200Y-160934400D02*
X124891800Y-156083000D01*
X130276600Y-141071600D02*
X139547600Y-141071600D01*
X126187200Y-145161000D02*
X130276600Y-141071600D01*
X126187200Y-155397200D02*
X126187200Y-145161000D01*
X130403600Y-159613600D02*
X126187200Y-155397200D01*
X138734800Y-159613600D02*
X130403600Y-159613600D01*
X142697200Y-155651200D02*
X138734800Y-159613600D01*
X139217400Y-142163800D02*
X142697200Y-145643600D01*
X130632200Y-142163800D02*
X139217400Y-142163800D01*
X127076200Y-145719800D02*
X130632200Y-142163800D01*
X127076200Y-154584400D02*
X127076200Y-145719800D01*
X130124200Y-157632400D02*
X127076200Y-154584400D01*
X139090400Y-157632400D02*
X130124200Y-157632400D01*
X141732000Y-154990800D02*
X139090400Y-157632400D01*
X141732000Y-146380200D02*
X141732000Y-154990800D01*
X138582400Y-143230600D02*
X141732000Y-146380200D01*
X131241800Y-143230600D02*
X138582400Y-143230600D01*
X128219200Y-152527000D02*
X128219200Y-146253200D01*
X128778000Y-153085800D02*
X128219200Y-152527000D01*
X142697200Y-145643600D02*
X142697200Y-155651200D01*
X128219200Y-146253200D02*
X131241800Y-143230600D01*
X129336800Y-153085800D02*
X128778000Y-153085800D01*
X125018800Y-157911800D02*
X112852200Y-157911800D01*
%TD*%
M02*
