%TF.GenerationSoftware,KiCad,Pcbnew,(6.0.9)*%
%TF.CreationDate,2022-11-24T21:30:44+02:00*%
%TF.ProjectId,transformer,7472616e-7366-46f7-926d-65722e6b6963,rev?*%
%TF.SameCoordinates,Original*%
%TF.FileFunction,Legend,Top*%
%TF.FilePolarity,Positive*%
%FSLAX46Y46*%
G04 Gerber Fmt 4.6, Leading zero omitted, Abs format (unit mm)*
G04 Created by KiCad (PCBNEW (6.0.9)) date 2022-11-24 21:30:44*
%MOMM*%
%LPD*%
G01*
G04 APERTURE LIST*
%TA.AperFunction,Profile*%
%ADD10C,0.150000*%
%TD*%
%ADD11C,0.150000*%
%ADD12C,0.120000*%
%ADD13R,3.960000X1.980000*%
%ADD14O,3.960000X1.980000*%
G04 APERTURE END LIST*
D10*
X102514400Y-135915400D02*
X166674800Y-135915400D01*
X166674800Y-135915400D02*
X166674800Y-166624000D01*
X166674800Y-166624000D02*
X102514400Y-166624000D01*
X102514400Y-166624000D02*
X102514400Y-135915400D01*
D11*
%TO.C,J2*%
X163490580Y-149848133D02*
X164204866Y-149848133D01*
X164347723Y-149895752D01*
X164442961Y-149990990D01*
X164490580Y-150133847D01*
X164490580Y-150229085D01*
X163585819Y-149419561D02*
X163538200Y-149371942D01*
X163490580Y-149276704D01*
X163490580Y-149038609D01*
X163538200Y-148943371D01*
X163585819Y-148895752D01*
X163681057Y-148848133D01*
X163776295Y-148848133D01*
X163919152Y-148895752D01*
X164490580Y-149467180D01*
X164490580Y-148848133D01*
%TO.C,J1*%
X105212980Y-160063533D02*
X105927266Y-160063533D01*
X106070123Y-160111152D01*
X106165361Y-160206390D01*
X106212980Y-160349247D01*
X106212980Y-160444485D01*
X106212980Y-159063533D02*
X106212980Y-159634961D01*
X106212980Y-159349247D02*
X105212980Y-159349247D01*
X105355838Y-159444485D01*
X105451076Y-159539723D01*
X105498695Y-159634961D01*
D12*
%TO.C,J2*%
X151448200Y-159634800D02*
X153348200Y-159634800D01*
X150748200Y-159134800D02*
X151698200Y-159134800D01*
X158548200Y-159134800D02*
X158248200Y-159634800D01*
X151698200Y-159134800D02*
X151448200Y-159634800D01*
X153148200Y-159134800D02*
X158548200Y-159134800D01*
X163348200Y-148784800D02*
X150748200Y-148784800D01*
X163348200Y-159634800D02*
X163348200Y-148784800D01*
X158248200Y-159634800D02*
X163348200Y-159634800D01*
X153348200Y-159634800D02*
X153398200Y-159634800D01*
X150748200Y-148784800D02*
X150748200Y-159134800D01*
X153398200Y-159634800D02*
X153148200Y-159134800D01*
%TO.C,J1*%
X118350600Y-149610200D02*
X116450600Y-149610200D01*
X119050600Y-150110200D02*
X118100600Y-150110200D01*
X111250600Y-150110200D02*
X111550600Y-149610200D01*
X118100600Y-150110200D02*
X118350600Y-149610200D01*
X116650600Y-150110200D02*
X111250600Y-150110200D01*
X106450600Y-160460200D02*
X119050600Y-160460200D01*
X106450600Y-149610200D02*
X106450600Y-160460200D01*
X111550600Y-149610200D02*
X106450600Y-149610200D01*
X116450600Y-149610200D02*
X116400600Y-149610200D01*
X119050600Y-160460200D02*
X119050600Y-150110200D01*
X116400600Y-149610200D02*
X116650600Y-150110200D01*
%TD*%
%LPC*%
D13*
%TO.C,J2*%
X157048200Y-151434800D03*
D14*
X157048200Y-156434800D03*
%TD*%
D13*
%TO.C,J1*%
X112750600Y-157810200D03*
D14*
X112750600Y-152810200D03*
%TD*%
M02*
